<svg xmlns="http://www.w3.org/2000/svg" xmlns:xlink="http://www.w3.org/1999/xlink" viewBox="0 0 544.72 197.2">
	<defs>
		<style>.cls-1{fill:url(#linear-gradient);}.cls-2{fill:url(#linear-gradient-2);}.cls-3{fill:url(#linear-gradient-3);}.cls-4{fill:url(#linear-gradient-4);}.cls-5{fill:url(#linear-gradient-5);}.cls-6{fill:url(#linear-gradient-6);}.cls-7{fill:url(#linear-gradient-7);}.cls-8{fill:url(#linear-gradient-8);}.cls-9{fill:#18003f;}</style>
        <linearGradient id="linear-gradient" y1="85.95" x2="54.98" y2="85.95" gradientUnits="userSpaceOnUse"><stop offset="0" stop-color="#662d91"></stop>
            <stop offset="1" stop-color="#1b1464"></stop>
        </linearGradient>
        <linearGradient id="linear-gradient-2" x1="54.6" y1="85.9" x2="111.6" y2="85.9" xlink:href="#linear-gradient"></linearGradient>
        <linearGradient id="linear-gradient-3" x1="113.6" y1="98.75" x2="193.6" y2="98.75" xlink:href="#linear-gradient"></linearGradient>
        <linearGradient id="linear-gradient-4" x1="195" y1="85.95" x2="249.38" y2="85.95" xlink:href="#linear-gradient"></linearGradient>
        <linearGradient id="linear-gradient-5" x1="247.6" y1="82.36" x2="310.19" y2="82.36" xlink:href="#linear-gradient"></linearGradient>
        <linearGradient id="linear-gradient-6" x1="312.6" y1="82.3" x2="387.6" y2="82.3" xlink:href="#linear-gradient"></linearGradient>
        <linearGradient id="linear-gradient-7" x1="390" y1="85.95" x2="444.38" y2="85.95" xlink:href="#linear-gradient"></linearGradient>
        <linearGradient id="linear-gradient-8" x1="441.4" y1="104.09" x2="544.72" y2="104.09" xlink:href="#linear-gradient"></linearGradient>
    </defs>
    <title>ithildin</title>
    <path class="cls-1" d="M12.5 69q-1.7-2.8-3.9-2.8a4.7 4.7 0 0 0-4.4 2.5A4.53 4.53 0 0 1 0 71.2q0-1.2 3.3-5.6a91.9 91.9 0 0 1 7.8-9q4.5-4.6 8.9-8.3t6.6-3.7h1q2.4 0 4.9 2.8a51.56 51.56 0 0 1 4.6 6q2.1 3.2 3.6 6t1.9 2.8l8-6.6v2.7s-2.83 3.87-4.43 6a37.88 37.88 0 0 0-4 6.6q-.2 5.8-.3 11.6c-.07 3.87-.1 7.73-.27 11.6v26.8c.17 1.87.24 4.1.37 6.7a50.47 50.47 0 0 0 .9 7.4 19.06 19.06 0 0 0 2.1 5.9 5.26 5.26 0 0 0 3.8 2.7h.4c.4-.3 1.3-.7 2.7-1.5a3.05 3.05 0 0 1 2.3-.5H55q0 1-3.34 4.62t-7.5 7.78q-4.12 4.13-7.56 7.37a35.8 35.8 0 0 1-3.6 3.23h-1.4a69.7 69.7 0 0 1-8.6-7.7 26.83 26.83 0 0 1-4.9-7.4 27.43 27.43 0 0 1-2.1-8.8q-.4-4.9-.4-12.1v-6.2q0-5.2-.1-12.4t-.3-14.4q-.2-7.2-.3-13.3t-.3-8.7a16.57 16.57 0 0 0-2.1-4.6zm7.77-57.7q3.1-4 9.9-4 6 0 9.3 3.9a14.5 14.5 0 0 1 3.3 9.7 14.72 14.72 0 0 1-3.2 9.3 10.55 10.55 0 0 1-8.8 4.1A13.9 13.9 0 0 1 21 30.8a12.27 12.27 0 0 1-3.8-9.5 15.83 15.83 0 0 1 3.07-10z"></path>
    <path class="cls-2" d="M59.16 155.6H57a7.4 7.4 0 0 1 1.2-4.2 32.77 32.77 0 0 1 2.6-3.4 32.88 32.88 0 0 0 2.6-3.4 7.4 7.4 0 0 0 1.2-4.2 19.6 19.6 0 0 1 .2-2.8 8.4 8.4 0 0 1 .8-2.6V78.6a21.9 21.9 0 0 1-.4-2.8q-.2-2-.3-4.2t-.2-4.2c-.07-1.33-.1-2.27-.1-2.8s-.63-.7-1.5-.9-1.83-.4-2.9-.6a27.72 27.72 0 0 1-3.2-.8 4.28 4.28 0 0 1-2.4-1.7v-3a34.6 34.6 0 0 1 .3-3.5q.3-2.5 1.1-2.5h8.6a2.87 2.87 0 0 0 .9-1.4A5.75 5.75 0 0 0 66 48q1.6-7.17 3.2-12.64a42 42 0 0 1 4.3-10A39.85 39.85 0 0 1 80.3 17 62.78 62.78 0 0 1 91 9.2a49.52 49.52 0 0 1 5.2-2.8 12.77 12.77 0 0 1 5.4-1.2 4.8 4.8 0 0 1-2.2 4.4 9.74 9.74 0 0 0-3.4 3.57 35.9 35.9 0 0 0-3 12q-.4 6.08-.4 12.44 0 1.8-.1 4.3a22.16 22.16 0 0 0 .3 4.8 8.15 8.15 0 0 0 1.6 3.8 4.6 4.6 0 0 0 3.8 1.5q3.4.2 6.1.6T107 58a25 25 0 0 1-.4 2.6l-.6 1a16 16 0 0 0-3.8-.4 15.3 15.3 0 0 0-5 .9q-2.6.9-2.6 2.48v67.7q0 3.2 3 7.67t6.4 4.68q1.6 0 3.6-2t2.4-2h.6l1 .6v.86q-.4 1.2-4.3 5.2t-8.5 8.3q-4.6 4.3-8.68 7.6t-4.7 3.4H84q-1.64 0-3.68-2a54.15 54.15 0 0 1-4.3-4.9q-2.25-2.9-4.8-6a33.54 33.54 0 0 0-5.22-5.2z"></path>
    <path class="cls-3" d="M136.6 194.76q12.16-1.82 18.74-7.4a31.3 31.3 0 0 0 9.52-15.07 87.8 87.8 0 0 0 3.34-23q.4-13.5.4-30.9V94.1q0-2.85-.4-7.63a44.26 44.26 0 0 0-1.84-9.36 24.38 24.38 0 0 0-4-7.8 8.43 8.43 0 0 0-7-3.2q-2.65 0-6.2 2.85t-3.56 5.3V131a5.86 5.86 0 0 0 1.26 3.58 39 39 0 0 0 2.74 3.26l2.74 2.95a3.87 3.87 0 0 1 1.26 2.4v.7a2.35 2.35 0 0 1-1.2 2 10.52 10.52 0 0 1-2.9 1.3q-1.7.5-3.4.9a5.18 5.18 0 0 0-2.5 1.2 14.32 14.32 0 0 0-2.3 2.6q-1.5 2-3 4.1t-2.8 3.7c-.87 1-1.37 1.6-1.5 1.6a30.12 30.12 0 0 1-3.4-3q-3.2-3-7-6.5t-6.9-6.3q-3.1-2.8-3.1-2.2a4.25 4.25 0 0 1 .9-2.6q.9-1.2 2-2.4t2.1-2.5a4.64 4.64 0 0 0 1-2.9l.4-109a13.65 13.65 0 0 1 4-9.5 39 39 0 0 1 9.5-7.4A56.33 56.33 0 0 1 145 2.1a36.14 36.14 0 0 1 10-1.8 18.8 18.8 0 0 1 12.9 4.9 16.85 16.85 0 0 1 5.7 12.7 9.58 9.58 0 0 1-3.5 7.2 11 11 0 0 1-7.5 3.2 9.48 9.48 0 0 1-7.3-2.9 10.56 10.56 0 0 1-2.7-7.5 6.3 6.3 0 0 1 .9-3.3 21.4 21.4 0 0 1 2.1-2.9q1.2-1.4 2.1-2.6a4.53 4.53 0 0 0 .9-2.8V5.2q-8.26 0-10.63 3.9t-2.37 11.5v44.6c0 .4.27.6.83.6a2.3 2.3 0 0 0 .72-.1 1.77 1.77 0 0 1 .52-.1h1.54a111 111 0 0 0 11.7-8.4q4.5-3.8 10.3-9.6h3.4q2 1.8 5.2 5.3a75 75 0 0 1 6.3 8 56.1 56.1 0 0 1 5.3 9.6 25.38 25.38 0 0 1 2.2 10.1v58.6a62.77 62.77 0 0 1-3.8 21.5 59.78 59.78 0 0 1-10.7 18.6 52.93 52.93 0 0 1-16.6 13 46.58 46.58 0 0 1-21.3 4.9q-1.6 0-2.6-.1a12.57 12.57 0 0 1-3-.9v-.43a.9.9 0 0 1 1-1z"></path>
    <path class="cls-4" d="M207.5 69q-1.7-2.8-3.9-2.8a4.7 4.7 0 0 0-4.4 2.5 4.53 4.53 0 0 1-4.2 2.5q0-1.2 3.3-5.6a91.9 91.9 0 0 1 7.8-9q4.5-4.6 8.9-8.3t6.6-3.7h1q2.4 0 4.9 2.8a51.56 51.56 0 0 1 4.6 6q2.1 3.2 3.6 6t1.9 2.8l8-6.6v2.7s-3.43 3.87-5 6a37.88 37.88 0 0 0-4 6.6q-.2 5.8-.3 11.6a90.26 90.26 0 0 0 .33 11.6v26.8a25.42 25.42 0 0 0-.23 6.7 50.47 50.47 0 0 0 .9 7.4 19.06 19.06 0 0 0 2.1 5.9 5.26 5.26 0 0 0 3.8 2.7h.4c.4-.3 1.3-.7 2.7-1.5a3.05 3.05 0 0 1 2.3-.5h.8q0 1-3.33 4.62t-7.5 7.78q-4.13 4.13-7.57 7.37a35.8 35.8 0 0 1-3.64 3.24h-.76a69.7 69.7 0 0 1-8.6-7.7 26.83 26.83 0 0 1-4.9-7.4 27.43 27.43 0 0 1-2.1-8.8q-.4-4.9-.4-12.1v-6.2q0-5.2-.1-12.4t-.3-14.4q-.2-7.2-.3-13.3t-.3-8.7a16.57 16.57 0 0 0-2.1-4.6zm7.17-57.7q3.1-4 9.9-4 6 0 9.3 3.9a14.5 14.5 0 0 1 3.3 9.7 14.72 14.72 0 0 1-3.2 9.3 10.55 10.55 0 0 1-8.8 4.1 13.9 13.9 0 0 1-9.8-3.5 12.27 12.27 0 0 1-3.8-9.5 15.83 15.83 0 0 1 3.1-10z"></path>
    <path class="cls-5" d="M249 153.76c-.27 0-.73-.34-1.4-1v-.4a6.63 6.63 0 0 1 1.6-4.1q1.6-2 3.5-4.1a33.92 33.92 0 0 0 3.4-4.3 8.67 8.67 0 0 0 1.5-4.9V27.1a20.5 20.5 0 0 1 3.05-11 30.8 30.8 0 0 1 7.78-8.46A37.5 37.5 0 0 1 279 2.1a34.67 34.67 0 0 1 11.13-2 23.85 23.85 0 0 1 13.8 4.32 13.62 13.62 0 0 1 6.3 11.82 13.53 13.53 0 0 1-2.37 8.17q-2.36 3.3-7.88 3.3a9.8 9.8 0 0 1-7.68-3 11.15 11.15 0 0 1-2.76-7.72 8.66 8.66 0 0 1 1-3.64l1.87-3.94a24.65 24.65 0 0 0 1.3-3.15q.4-1.25-.6-1.25a6.72 6.72 0 0 0-5.6 2.35 15.38 15.38 0 0 0-2.7 5.9 35.83 35.83 0 0 0-1 7.9q-.1 4.3-.1 8.06v95.66a20.8 20.8 0 0 0 .8 4.4 38.54 38.54 0 0 0 2.3 6.3 28.46 28.46 0 0 0 3.4 5.7q1.96 2.5 4 2.5h.84a5.53 5.53 0 0 0 3.77-1.58 5.75 5.75 0 0 1 4-1.58v1.4q0 1.25-2.36 3.45a72.34 72.34 0 0 1-5.82 4.83q-3.46 2.64-7.33 5.47t-6.97 5.15A6.06 6.06 0 0 1 279 163c-.9 1.13-1.5 1.7-1.74 1.7H274a26.33 26.33 0 0 0-4-3.4 25.78 25.78 0 0 1-4-3.36 13.7 13.7 0 0 1-2.2-3.1q-1-1.83-1.9-3.67a16.07 16.07 0 0 0-2-3.18 3.58 3.58 0 0 0-2.9-1.4h-1z"></path>
    <path class="cls-6" d="M333.6 52.6a74.33 74.33 0 0 1-14.4-10.5q-6-5.7-6.2-16.5a28.63 28.63 0 0 1 1.4-8.5 30.76 30.76 0 0 1 4-8.3 23.6 23.6 0 0 1 6.3-6.3A14.5 14.5 0 0 1 333 0a5.3 5.3 0 0 1-.8 3 28.56 28.56 0 0 1-1.8 2.4 21.3 21.3 0 0 0-1.9 2.7 6.68 6.68 0 0 0-.9 3.5 9.47 9.47 0 0 0 2.5 6.7 26.24 26.24 0 0 0 6.1 4.8 63.58 63.58 0 0 0 7.4 3.7A48.1 48.1 0 0 1 350 30q5.6 3.4 12.1 7.9A92.88 92.88 0 0 1 374.3 48a56.88 56.88 0 0 1 9.5 12.2 28.38 28.38 0 0 1 3.8 14.4V120a18.08 18.08 0 0 1-1.7 7.4 38.85 38.85 0 0 1-4.3 7.3 47.6 47.6 0 0 1-5.7 6.4 32.3 32.3 0 0 1-5.9 4.5q-7 4.2-13.1 8.4a69 69 0 0 0-11.9 10.6h-1.4a90.8 90.8 0 0 0-9.9-8.5 85.5 85.5 0 0 1-10.1-8.8 49.1 49.1 0 0 1-7.8-10.4 26.7 26.7 0 0 1-3.2-13.3V87a22.24 22.24 0 0 1 3.5-12 61.54 61.54 0 0 1 7.6-9.9 75.23 75.23 0 0 1 7.5-7q3.4-2.7 3.4-3.5 0-1.6-1-2zm6 10v56.6q0 2.4 2.2 6.4a47.67 47.67 0 0 0 5.3 7.7 49.52 49.52 0 0 0 6.5 6.5q3.4 2.8 5.6 2.8h.4a14.1 14.1 0 0 1 2-1.4v-57a17 17 0 0 0-2-6.8 51.92 51.92 0 0 0-5-8.3 43.45 43.45 0 0 0-6.3-7q-3.3-2.9-5.7-2.9-3 0-3 3.4z"></path>
    <path class="cls-7" d="M402.5 69q-1.7-2.8-3.9-2.8a4.7 4.7 0 0 0-4.4 2.5 4.53 4.53 0 0 1-4.2 2.5q0-1.2 3.3-5.6a91.9 91.9 0 0 1 7.8-9q4.5-4.6 8.9-8.3t6.6-3.7h1q2.4 0 4.9 2.8a51.45 51.45 0 0 1 4.6 6q2.1 3.2 3.6 6t1.9 2.8l8-6.6v2.7s-3.43 3.87-5 6a37.9 37.9 0 0 0-4 6.6q-.2 5.8-.3 11.6a89.65 89.65 0 0 0 .33 11.6v26.8a25.3 25.3 0 0 0-.23 6.7 50.54 50.54 0 0 0 .9 7.4 19.06 19.06 0 0 0 2.1 5.9 5.26 5.26 0 0 0 3.8 2.7h.4c.4-.3 1.3-.7 2.7-1.5a3.05 3.05 0 0 1 2.3-.5h.8q0 1-3.33 4.62t-7.5 7.78q-4.13 4.13-7.57 7.37a35.7 35.7 0 0 1-3.64 3.24h-.76a69.7 69.7 0 0 1-8.6-7.7 26.83 26.83 0 0 1-4.9-7.4 27.44 27.44 0 0 1-2.1-8.8q-.4-4.9-.4-12.1v-6.2q0-5.2-.1-12.4t-.3-14.4q-.2-7.2-.3-13.3t-.3-8.7a16.57 16.57 0 0 0-2.1-4.6zm7.17-57.7q3.1-4 9.9-4 6 0 9.3 3.9a14.5 14.5 0 0 1 3.3 9.7 14.72 14.72 0 0 1-3.2 9.3 10.55 10.55 0 0 1-8.8 4.1 13.9 13.9 0 0 1-9.8-3.5 12.27 12.27 0 0 1-3.8-9.5 15.83 15.83 0 0 1 3.1-10z"></path>
    <path class="cls-8" d="M448.54 143.7q.94-1.5 2.06-3.2a29.06 29.06 0 0 0 2.06-3.7 9.77 9.77 0 0 0 .94-4.2V76.75a11.6 11.6 0 0 0-.5-2.85 14.92 14.92 0 0 0-1.54-3.56 15.43 15.43 0 0 0-2.34-3.05 3.9 3.9 0 0 0-2.74-1.3L443 67.6h-1.6a29.27 29.27 0 0 0 2.95-3.6q2.95-3.76 6.92-8.34a95.22 95.22 0 0 1 8.14-8.34q4.2-3.76 6.5-3.76h.2a10 10 0 0 1 4.9 3.5 77.84 77.84 0 0 1 4.8 8.5q2.3 4.7 4.1 8.5t2.6 3.8a13.12 13.12 0 0 0 3.1-2l6.2-4.6 6.7-5q3.2-2.4 4.6-3.4l1.8-1.8q1.6-1.6 3.6-3.4t3.6-3.3a2.4 2.4 0 0 1 2-.8q1.8 0 3.9 2.5a68.2 68.2 0 0 1 4.2 5.57q2.1 3.1 4 6a12.86 12.86 0 0 0 3.5 3.88l9-7.5v3.6a87 87 0 0 0-6.9 9.6 21 21 0 0 0-3.1 11.37v51.18a14.23 14.23 0 0 0 .5 3.4 17.15 17.15 0 0 0 1.5 3.9 17.5 17.5 0 0 0 2.2 3.3 3.6 3.6 0 0 0 2.8 1.4l5.4-5h3.77q0 3-3.05 6.1L527.54 157a6.38 6.38 0 0 1-1.32 1.8q-1.1 1.22-2.4 2.44t-2.23 2.23c-.6.7-.76 1.1-.5 1.23h-.6l-12.6-11.8a12.15 12.15 0 0 1-3.47-7.1 58.53 58.53 0 0 1-.6-8.3v-5.9q0-5.88.3-17t-.3-22.2A114.27 114.27 0 0 0 501.3 73q-1.95-8.3-6.2-8.3a8.46 8.46 0 0 0-4.3 1.3 21.6 21.6 0 0 0-7.43 7.4 10.35 10.35 0 0 0-1.53 4.07 90.22 90.22 0 0 0-.6 9.54q-.2 6.9-.3 14.9t-.1 14.9v12.5a16.6 16.6 0 0 0 1 6.2 22.8 22.8 0 0 0 2.35 4.48q1.3 1.9 2.33 3.23a4 4 0 0 1 1 2.35q0 1-1.83 2.45l-4.1 3.1q-2.23 1.73-4.4 3.25a11.77 11.77 0 0 0-3 2.73 19.78 19.78 0 0 0-3.23 4.7q-1.6 3-2.82 3h-1.6a37.87 37.87 0 0 0-18.8-16.7v-1.4a5.47 5.47 0 0 1 .94-2.9z"></path>
    <path class="cls-9" d="M12.5 69q-1.7-2.8-3.9-2.8a4.7 4.7 0 0 0-4.4 2.5A4.53 4.53 0 0 1 0 71.2q0-1.2 3.3-5.6a91.9 91.9 0 0 1 7.8-9q4.5-4.6 8.9-8.3t6.6-3.7h1q2.4 0 4.9 2.8a51.56 51.56 0 0 1 4.6 6q2.1 3.2 3.6 6t1.9 2.8l8-6.6v2.7s-2.83 3.87-4.43 6a37.88 37.88 0 0 0-4 6.6q-.2 5.8-.3 11.6c-.07 3.87-.1 7.73-.27 11.6v26.8c.17 1.87.24 4.1.37 6.7a50.47 50.47 0 0 0 .9 7.4 19.06 19.06 0 0 0 2.1 5.9 5.26 5.26 0 0 0 3.8 2.7h.4c.4-.3 1.3-.7 2.7-1.5a3.05 3.05 0 0 1 2.3-.5H55q0 1-3.34 4.62t-7.5 7.78q-4.12 4.13-7.56 7.37a35.8 35.8 0 0 1-3.6 3.23h-1.4a69.7 69.7 0 0 1-8.6-7.7 26.83 26.83 0 0 1-4.9-7.4 27.43 27.43 0 0 1-2.1-8.8q-.4-4.9-.4-12.1v-6.2q0-5.2-.1-12.4t-.3-14.4q-.2-7.2-.3-13.3t-.3-8.7a16.57 16.57 0 0 0-2.1-4.6zm7.77-57.7q3.1-4 9.9-4 6 0 9.3 3.9a14.5 14.5 0 0 1 3.3 9.7 14.72 14.72 0 0 1-3.2 9.3 10.55 10.55 0 0 1-8.8 4.1A13.9 13.9 0 0 1 21 30.8a12.27 12.27 0 0 1-3.8-9.5 15.83 15.83 0 0 1 3.07-10zm6.63 129.2a23.94 23.94 0 0 0 3.2 4.7 5.64 5.64 0 0 0 3.1 2.1q1.4.2 1.4-3v-1.4a38.7 38.7 0 0 1-.7-5.7q-.3-4.1-.3-5.3V70.3a5.3 5.3 0 0 0-.6-1.9 29.7 29.7 0 0 0-1.5-2.8 13.52 13.52 0 0 0-2-2.6 3 3 0 0 0-1.9-1.1 10.1 10.1 0 0 0-2.5.4c-1 .27-1.5.8-1.5 1.6v.4q0 4.2.2 14.4t.6 21.6q.4 11.4.6 21.5t.2 14.1a13.57 13.57 0 0 0 1.7 4.6zM25.37 25a5.43 5.43 0 0 0 4.4 1.9 5.38 5.38 0 0 0 4.5-1.9 7.34 7.34 0 0 0 1.5-4.7 8.1 8.1 0 0 0-1.5-5 5.27 5.27 0 0 0-4.5-2 5.33 5.33 0 0 0-4.4 2 7.74 7.74 0 0 0-1.6 5 7 7 0 0 0 1.6 4.7zm33.8 130.6H57a7.4 7.4 0 0 1 1.2-4.2 32.77 32.77 0 0 1 2.6-3.4 32.88 32.88 0 0 0 2.6-3.4 7.4 7.4 0 0 0 1.2-4.2 19.6 19.6 0 0 1 .2-2.8 8.4 8.4 0 0 1 .8-2.6V78.6a21.9 21.9 0 0 1-.4-2.8q-.2-2-.3-4.2t-.2-4.2c-.07-1.33-.1-2.27-.1-2.8s-.63-.7-1.5-.9-1.83-.4-2.9-.6a27.72 27.72 0 0 1-3.2-.8 4.28 4.28 0 0 1-2.4-1.7v-3a34.6 34.6 0 0 1 .3-3.5q.3-2.5 1.1-2.5h8.6a2.87 2.87 0 0 0 .9-1.4A5.75 5.75 0 0 0 66 48q1.6-7.17 3.2-12.64a42 42 0 0 1 4.3-10A39.85 39.85 0 0 1 80.3 17 62.78 62.78 0 0 1 91 9.2a49.52 49.52 0 0 1 5.2-2.8 12.77 12.77 0 0 1 5.4-1.2 4.8 4.8 0 0 1-2.2 4.4 9.74 9.74 0 0 0-3.4 3.57 35.9 35.9 0 0 0-3 12q-.4 6.08-.4 12.44 0 1.8-.1 4.3a22.16 22.16 0 0 0 .3 4.8 8.15 8.15 0 0 0 1.6 3.8 4.6 4.6 0 0 0 3.8 1.5q3.4.2 6.1.6T107 58a25 25 0 0 1-.4 2.6l-.6 1a16 16 0 0 0-3.8-.4 15.3 15.3 0 0 0-5 .9q-2.6.9-2.6 2.48v67.7q0 3.2 3 7.67t6.4 4.68q1.6 0 3.6-2t2.4-2h.6l1 .6v.86q-.4 1.2-4.3 5.2t-8.5 8.3q-4.6 4.3-8.68 7.6t-4.7 3.4H84q-1.64 0-3.68-2a54.15 54.15 0 0 1-4.3-4.9q-2.25-2.9-4.8-6a33.54 33.54 0 0 0-5.22-5.2zm17.53-14.37q1.3 2 2.8 4.1t2.8 3.67q1.3 1.6 2.3 1.6h.4q.8-.4 2.2-1.3c.93-.6 1.4-1.17 1.4-1.7a8.18 8.18 0 0 0-1.1-3.7q-1.1-2.08-1.9-3.28v-81.1A96.48 96.48 0 0 1 84 45.45q-.4-8.07-.4-12.86h-1a45.44 45.44 0 0 0-6.9 14.6 62.78 62.78 0 0 0-2.1 16.2v6q0 6.73.1 16.9t.2 20.42q.1 10.27.3 19t.4 12.76a11.06 11.06 0 0 1 2.1 2.6zm59.9 53.53q12.16-1.82 18.74-7.4a31.3 31.3 0 0 0 9.52-15.07 87.8 87.8 0 0 0 3.34-23q.4-13.5.4-30.9V94.1q0-2.85-.4-7.63a44.26 44.26 0 0 0-1.84-9.36 24.38 24.38 0 0 0-4-7.8 8.43 8.43 0 0 0-7-3.2q-2.65 0-6.2 2.85t-3.56 5.3V131a5.86 5.86 0 0 0 1.26 3.58 39 39 0 0 0 2.74 3.26l2.74 2.95a3.87 3.87 0 0 1 1.26 2.4v.7a2.35 2.35 0 0 1-1.2 2 10.52 10.52 0 0 1-2.9 1.3q-1.7.5-3.4.9a5.18 5.18 0 0 0-2.5 1.2 14.32 14.32 0 0 0-2.3 2.6q-1.5 2-3 4.1t-2.8 3.7c-.87 1-1.37 1.6-1.5 1.6a30.12 30.12 0 0 1-3.4-3q-3.2-3-7-6.5t-6.9-6.3q-3.1-2.8-3.1-2.2a4.25 4.25 0 0 1 .9-2.6q.9-1.2 2-2.4t2.1-2.5a4.64 4.64 0 0 0 1-2.9l.4-109a13.65 13.65 0 0 1 4-9.5 39 39 0 0 1 9.5-7.4A56.33 56.33 0 0 1 145 2.1a36.14 36.14 0 0 1 10-1.8 18.8 18.8 0 0 1 12.9 4.9 16.85 16.85 0 0 1 5.7 12.7 9.58 9.58 0 0 1-3.5 7.2 11 11 0 0 1-7.5 3.2 9.48 9.48 0 0 1-7.3-2.9 10.56 10.56 0 0 1-2.7-7.5 6.3 6.3 0 0 1 .9-3.3 21.4 21.4 0 0 1 2.1-2.9q1.2-1.4 2.1-2.6a4.53 4.53 0 0 0 .9-2.8V5.2q-8.26 0-10.63 3.9t-2.37 11.5v44.6c0 .4.27.6.83.6a2.3 2.3 0 0 0 .72-.1 1.77 1.77 0 0 1 .52-.1h1.54a111 111 0 0 0 11.7-8.4q4.5-3.8 10.3-9.6h3.4q2 1.8 5.2 5.3a75 75 0 0 1 6.3 8 56.1 56.1 0 0 1 5.3 9.6 25.38 25.38 0 0 1 2.2 10.1v58.6a62.77 62.77 0 0 1-3.8 21.5 59.78 59.78 0 0 1-10.7 18.6 52.93 52.93 0 0 1-16.6 13 46.58 46.58 0 0 1-21.3 4.9q-1.6 0-2.6-.1a12.57 12.57 0 0 1-3-.9v-.43a.9.9 0 0 1 1-1zm-2.48-173a22.86 22.86 0 0 0-2.57 3.6 36 36 0 0 0-2.1 4.1 8.7 8.7 0 0 0-.86 2.8V138.9q0 .8 1.8 1.6a7.73 7.73 0 0 0 3 .8 6.9 6.9 0 0 0 1.8-.6q1.4-.6 1.4-1.4v-119a3.6 3.6 0 0 0-2.5 1.5zm25.25-1.5a6.3 6.3 0 0 0 3.4 1q4.6 0 4.6-4 0-4.4-4.6-4.4a5.9 5.9 0 0 0-3.4 1.1 3.74 3.74 0 0 0-1.6 3.3 3.3 3.3 0 0 0 1.6 3.04zm14.36 46a26.5 26.5 0 0 1 1.34 3.3 28.54 28.54 0 0 1 1.34 7.9q.2 4.5.2 7.5v76.6h1l3.9-8a33.2 33.2 0 0 0 2.3-7.6 43.76 43.76 0 0 0 1-8.4q0-2.4.2-8.5t.3-12.8.3-12.8.2-8.5V91a40.53 40.53 0 0 0-1-5.8 74.78 74.78 0 0 0-2.7-9.5 50 50 0 0 0-4-8.8q-2.3-3.9-4.8-3.9a7.36 7.36 0 0 0 .58 3.3zM207.5 69q-1.7-2.8-3.9-2.8a4.7 4.7 0 0 0-4.4 2.5 4.53 4.53 0 0 1-4.2 2.5q0-1.2 3.3-5.6a91.9 91.9 0 0 1 7.8-9q4.5-4.6 8.9-8.3t6.6-3.7h1q2.4 0 4.9 2.8a51.56 51.56 0 0 1 4.6 6q2.1 3.2 3.6 6t1.9 2.8l8-6.6v2.7s-3.43 3.87-5 6a37.88 37.88 0 0 0-4 6.6q-.2 5.8-.3 11.6a90.3 90.3 0 0 0 .33 11.6v26.8a25.44 25.44 0 0 0-.23 6.7 50.47 50.47 0 0 0 .9 7.4 19.06 19.06 0 0 0 2.1 5.9 5.26 5.26 0 0 0 3.8 2.7h.4c.4-.3 1.3-.7 2.7-1.5a3.05 3.05 0 0 1 2.3-.5h.8q0 1-3.33 4.62t-7.5 7.78q-4.13 4.13-7.57 7.37a35.8 35.8 0 0 1-3.64 3.24h-.76a69.7 69.7 0 0 1-8.6-7.7 26.83 26.83 0 0 1-4.9-7.4 27.43 27.43 0 0 1-2.1-8.8q-.4-4.9-.4-12.1v-6.2q0-5.2-.1-12.4t-.3-14.4q-.2-7.2-.3-13.3t-.3-8.7a16.57 16.57 0 0 0-2.1-4.6zm7.17-57.7q3.1-4 9.9-4 6 0 9.3 3.9a14.5 14.5 0 0 1 3.3 9.7 14.72 14.72 0 0 1-3.2 9.3 10.55 10.55 0 0 1-8.8 4.1 13.9 13.9 0 0 1-9.8-3.5 12.27 12.27 0 0 1-3.8-9.5 15.83 15.83 0 0 1 3.1-10zm6.23 129.2a23.94 23.94 0 0 0 3.2 4.7 5.64 5.64 0 0 0 3.1 2.1q1.4.2 1.4-3v-1.4a38.7 38.7 0 0 1-.7-5.7q-.3-4.1-.3-5.3V70.3a5.3 5.3 0 0 0-.6-1.9 29.7 29.7 0 0 0-1.5-2.8 13.52 13.52 0 0 0-2-2.6 3 3 0 0 0-1.9-1.1 10.1 10.1 0 0 0-2.5.4c-1 .27-1.5.8-1.5 1.6v.4q0 4.2.2 14.4t.6 21.6q.4 11.4.6 21.5t.2 14.1a13.57 13.57 0 0 0 1.7 4.6zM219.77 25a5.43 5.43 0 0 0 4.4 1.9 5.38 5.38 0 0 0 4.5-1.9 7.34 7.34 0 0 0 1.5-4.7 8.1 8.1 0 0 0-1.5-5 5.27 5.27 0 0 0-4.5-2 5.33 5.33 0 0 0-4.4 2 7.74 7.74 0 0 0-1.6 5 7 7 0 0 0 1.6 4.7z"></path>
    <path class="cls-9" d="M249 153.76c-.27 0-.73-.34-1.4-1v-.4a6.63 6.63 0 0 1 1.6-4.1q1.6-2 3.5-4.1a33.92 33.92 0 0 0 3.4-4.3 8.67 8.67 0 0 0 1.5-4.9V27.1a20.5 20.5 0 0 1 3.05-11 30.8 30.8 0 0 1 7.78-8.46A37.5 37.5 0 0 1 279 2.1a34.67 34.67 0 0 1 11.13-2 23.85 23.85 0 0 1 13.8 4.32 13.62 13.62 0 0 1 6.3 11.82 13.53 13.53 0 0 1-2.37 8.17q-2.36 3.3-7.88 3.3a9.8 9.8 0 0 1-7.68-3 11.15 11.15 0 0 1-2.76-7.72 8.66 8.66 0 0 1 1-3.64l1.87-3.94a24.65 24.65 0 0 0 1.3-3.15q.4-1.25-.6-1.25a6.72 6.72 0 0 0-5.6 2.35 15.38 15.38 0 0 0-2.7 5.9 35.83 35.83 0 0 0-1 7.9q-.1 4.3-.1 8.06v95.66a20.8 20.8 0 0 0 .8 4.4 38.54 38.54 0 0 0 2.3 6.3 28.46 28.46 0 0 0 3.4 5.7q1.96 2.5 4 2.5h.84a5.53 5.53 0 0 0 3.77-1.58 5.75 5.75 0 0 1 4-1.58v1.4q0 1.25-2.36 3.45a72.34 72.34 0 0 1-5.82 4.83q-3.46 2.64-7.33 5.47t-6.97 5.15A6.06 6.06 0 0 1 279 163c-.9 1.13-1.5 1.7-1.74 1.7H274a26.33 26.33 0 0 0-4-3.4 25.78 25.78 0 0 1-4-3.36 13.7 13.7 0 0 1-2.2-3.1q-1-1.83-1.9-3.67a16.07 16.07 0 0 0-2-3.18 3.58 3.58 0 0 0-2.9-1.4h-1zm18.8-13.46a33.32 33.32 0 0 0 2.13 3.9 25.08 25.08 0 0 0 2.6 3.5 3.74 3.74 0 0 0 2.7 1.5 4.14 4.14 0 0 0 2.1-.7 2.14 2.14 0 0 0 1.16-1.9 18 18 0 0 0-1.5-5.6 19.44 19.44 0 0 1-1.5-6.8V18.6h-1q-.4 0-1.9 1.6a11.3 11.3 0 0 0-1.9 2.4 21.68 21.68 0 0 0-3.4 8.5 96.74 96.74 0 0 0-1.6 11.7q-.5 6.4-.4 13.3t.1 13.1v18q0 12.4.2 24.2t.76 26.2q.42.8 1.3 2.7zm28.67-120.5a4.64 4.64 0 0 0 3.1 1.1q4 0 4-4 0-4.6-4-4.6a4.24 4.24 0 0 0-3.1 1.3 4.47 4.47 0 0 0-1.3 3.3 3.6 3.6 0 0 0 1.3 2.9zm37.13 32.8a74.33 74.33 0 0 1-14.4-10.5q-6-5.7-6.2-16.5a28.63 28.63 0 0 1 1.4-8.5 30.76 30.76 0 0 1 4-8.3 23.6 23.6 0 0 1 6.3-6.3A14.5 14.5 0 0 1 333 0a5.3 5.3 0 0 1-.8 3 28.56 28.56 0 0 1-1.8 2.4 21.3 21.3 0 0 0-1.9 2.7 6.68 6.68 0 0 0-.9 3.5 9.47 9.47 0 0 0 2.5 6.7 26.24 26.24 0 0 0 6.1 4.8 63.58 63.58 0 0 0 7.4 3.7A48.1 48.1 0 0 1 350 30q5.6 3.4 12.1 7.9A92.88 92.88 0 0 1 374.3 48a56.87 56.87 0 0 1 9.5 12.2 28.38 28.38 0 0 1 3.8 14.4V120a18.07 18.07 0 0 1-1.7 7.4 38.83 38.83 0 0 1-4.3 7.3 47.6 47.6 0 0 1-5.7 6.4 32.3 32.3 0 0 1-5.9 4.5q-7 4.2-13.1 8.4a69 69 0 0 0-11.9 10.6h-1.4a90.8 90.8 0 0 0-9.9-8.5 85.5 85.5 0 0 1-10.1-8.8 49.1 49.1 0 0 1-7.8-10.4 26.7 26.7 0 0 1-3.2-13.3V87a22.24 22.24 0 0 1 3.5-12 61.54 61.54 0 0 1 7.6-9.9 75.23 75.23 0 0 1 7.5-7q3.4-2.7 3.4-3.5 0-1.6-1-2zm-5.3 24.2a40.74 40.74 0 0 0-5.7 10.3 13.8 13.8 0 0 0-1 3.5v28.6a23 23 0 0 0 1.9 7.7 57.45 57.45 0 0 0 4.9 9.7 50 50 0 0 0 6.5 8.4q3.5 3.6 6.7 3.6h1.4a10.16 10.16 0 0 0 1.2-.1.8.8 0 0 0 .8-.9 109.9 109.9 0 0 1-8.6-8.8q-4.8-5.4-4.8-11.2v-53q-1.6 0-3.3 2.2zm.6-40.2a46.4 46.4 0 0 0 8 6.1q4.7 2.9 9.6 5.3t8.1 3.6a30.67 30.67 0 0 1 10.1 10.9 71.57 71.57 0 0 1 5.9 13.1v53q1.8 0 3.4-2.4a36.5 36.5 0 0 0 2.9-5.3 39.26 39.26 0 0 0 2-5.4 20.55 20.55 0 0 0 .7-2.9V83.2q.2-.6-1.1-4.4a29.43 29.43 0 0 1-1.5-5.6 42.52 42.52 0 0 0-8.6-14.3A75.3 75.3 0 0 0 355.9 48a150.75 150.75 0 0 0-14.5-8.9q-7.6-4.1-14.8-8.5h-1q0 2.8 3.3 6zm10.7 26v56.6q0 2.4 2.2 6.4a47.67 47.67 0 0 0 5.3 7.7 49.52 49.52 0 0 0 6.5 6.5q3.4 2.8 5.6 2.8h.4a14.1 14.1 0 0 1 2-1.4v-57a17 17 0 0 0-2-6.8 51.92 51.92 0 0 0-5-8.3 43.45 43.45 0 0 0-6.3-7q-3.3-2.9-5.7-2.9-3 0-3 3.4zm62.9 6.4q-1.7-2.8-3.9-2.8a4.7 4.7 0 0 0-4.4 2.5 4.53 4.53 0 0 1-4.2 2.5q0-1.2 3.3-5.6a91.9 91.9 0 0 1 7.8-9q4.5-4.6 8.9-8.3t6.6-3.7h1q2.4 0 4.9 2.8a51.45 51.45 0 0 1 4.6 6q2.1 3.2 3.6 6t1.9 2.8l8-6.6v2.7s-3.43 3.87-5 6a37.9 37.9 0 0 0-4 6.6q-.2 5.8-.3 11.6a89.78 89.78 0 0 0 .33 11.6v26.8a25.34 25.34 0 0 0-.23 6.7 50.54 50.54 0 0 0 .9 7.4 19.06 19.06 0 0 0 2.1 5.9 5.26 5.26 0 0 0 3.8 2.7h.4c.4-.3 1.3-.7 2.7-1.5a3.05 3.05 0 0 1 2.3-.5h.8q0 1-3.33 4.62t-7.5 7.78q-4.13 4.13-7.57 7.37a35.7 35.7 0 0 1-3.64 3.24h-.76a69.7 69.7 0 0 1-8.6-7.7 26.83 26.83 0 0 1-4.9-7.4 27.44 27.44 0 0 1-2.1-8.8q-.4-4.9-.4-12.1v-6.2q0-5.2-.1-12.4t-.3-14.4q-.2-7.2-.3-13.3t-.3-8.7a16.57 16.57 0 0 0-2.1-4.6zm7.17-57.7q3.1-4 9.9-4 6 0 9.3 3.9a14.5 14.5 0 0 1 3.3 9.7 14.72 14.72 0 0 1-3.2 9.3 10.55 10.55 0 0 1-8.8 4.1 13.9 13.9 0 0 1-9.8-3.5 12.27 12.27 0 0 1-3.8-9.5 15.83 15.83 0 0 1 3.1-10zm6.23 129.2a23.92 23.92 0 0 0 3.2 4.7 5.64 5.64 0 0 0 3.1 2.1q1.4.2 1.4-3v-1.4a38.7 38.7 0 0 1-.7-5.7q-.3-4.1-.3-5.3V70.3a5.3 5.3 0 0 0-.6-1.9 29.92 29.92 0 0 0-1.5-2.8 13.57 13.57 0 0 0-2-2.6 3 3 0 0 0-1.9-1.1 10.1 10.1 0 0 0-2.5.4c-1 .27-1.5.8-1.5 1.6v.4q0 4.2.2 14.4t.6 21.6q.4 11.4.6 21.5t.2 14.1a13.58 13.58 0 0 0 1.7 4.6zM414.77 25a5.43 5.43 0 0 0 4.4 1.9 5.38 5.38 0 0 0 4.5-1.9 7.34 7.34 0 0 0 1.5-4.7 8.1 8.1 0 0 0-1.5-5 5.27 5.27 0 0 0-4.5-2 5.33 5.33 0 0 0-4.4 2 7.74 7.74 0 0 0-1.6 5 7 7 0 0 0 1.6 4.7zm33.77 118.7q.94-1.5 2.06-3.2a29.06 29.06 0 0 0 2.06-3.7 9.77 9.77 0 0 0 .94-4.2V76.75a11.6 11.6 0 0 0-.5-2.85 14.92 14.92 0 0 0-1.54-3.56 15.43 15.43 0 0 0-2.34-3.05 3.9 3.9 0 0 0-2.74-1.3L443 67.6h-1.6a29.27 29.27 0 0 0 2.95-3.6q2.95-3.76 6.92-8.34a95.22 95.22 0 0 1 8.14-8.34q4.2-3.76 6.5-3.76h.2a10 10 0 0 1 4.9 3.5 77.84 77.84 0 0 1 4.8 8.5q2.3 4.7 4.1 8.5t2.6 3.8a13.12 13.12 0 0 0 3.1-2l6.2-4.6 6.7-5q3.2-2.4 4.6-3.4l1.8-1.8q1.6-1.6 3.6-3.4t3.6-3.3a2.4 2.4 0 0 1 2-.8q1.8 0 3.9 2.5a68.2 68.2 0 0 1 4.2 5.57q2.1 3.1 4 6a12.86 12.86 0 0 0 3.5 3.88l9-7.5v3.6a87 87 0 0 0-6.9 9.6 21 21 0 0 0-3.1 11.37v51.18a14.23 14.23 0 0 0 .5 3.4 17.15 17.15 0 0 0 1.5 3.9 17.5 17.5 0 0 0 2.2 3.3 3.6 3.6 0 0 0 2.8 1.4l5.4-5h3.77q0 3-3.05 6.1L527.54 157a6.38 6.38 0 0 1-1.32 1.8q-1.1 1.22-2.4 2.44t-2.23 2.23c-.6.7-.76 1.1-.5 1.23h-.6l-12.6-11.8a12.15 12.15 0 0 1-3.47-7.1 58.53 58.53 0 0 1-.6-8.3v-5.9q0-5.88.3-17t-.3-22.2A114.27 114.27 0 0 0 501.3 73q-1.95-8.3-6.2-8.3a8.46 8.46 0 0 0-4.3 1.3 21.6 21.6 0 0 0-7.43 7.4 10.35 10.35 0 0 0-1.53 4.07 90.22 90.22 0 0 0-.6 9.54q-.2 6.9-.3 14.9t-.1 14.9v12.5a16.6 16.6 0 0 0 1 6.2 22.8 22.8 0 0 0 2.35 4.48q1.3 1.9 2.33 3.23a4 4 0 0 1 1 2.35q0 1-1.83 2.45l-4.1 3.1q-2.23 1.73-4.4 3.25a11.77 11.77 0 0 0-3 2.73 19.78 19.78 0 0 0-3.23 4.7q-1.6 3-2.82 3h-1.6a37.87 37.87 0 0 0-18.8-16.7v-1.4a5.47 5.47 0 0 1 .94-2.9zm15.86.3a3.22 3.22 0 0 0 2.2.9 3.52 3.52 0 0 0 2.7-1.2q1.1-1.2 2.3-2.4v-66a13.53 13.53 0 0 0-1.6-5.7 31.2 31.2 0 0 0-3.4-5.6q-1.8-2.3-3.4-2.5t-1.6 3.4v2q0 4.2.2 15t.3 22.8q.1 12 .3 22.7t.2 14.9q.8.8 1.8 1.7zm48-5a20.73 20.73 0 0 0 1.5 3.3 18.32 18.32 0 0 0 1.9 2.8 2.66 2.66 0 0 0 3.26 1 3.27 3.27 0 0 0 1.94-3.16 8.6 8.6 0 0 0-.3-2.22 26.16 26.16 0 0 0-1.1-2.8V68.3a12.13 12.13 0 0 0-2-4.1 12 12 0 0 0-3.6-3.5 4.2 4.2 0 0 0-3.5-.7q-1.5.5-1.5 3.9a12.17 12.17 0 0 0 1 4l1.6 68.4a20.6 20.6 0 0 0 .8 2.7z"></path>
</svg>
